<?xml version="1.0" encoding="UTF-8" standalone="no"?><svg xmlns="http://www.w3.org/2000/svg" xmlns:xlink="http://www.w3.org/1999/xlink" contentScriptType="application/ecmascript" contentStyleType="text/css" height="1207.5px" preserveAspectRatio="none" style="width:1265px;height:1207px;" version="1.1" viewBox="0 0 1265 1207" width="1265px" zoomAndPan="magnify"><defs><filter height="300%" id="fn70f7t1anjvl" width="300%" x="-1" y="-1"><feGaussianBlur result="blurOut" stdDeviation="2.5"/><feColorMatrix in="blurOut" result="blurOut2" type="matrix" values="0 0 0 0 0 0 0 0 0 0 0 0 0 0 0 0 0 0 .4 0"/><feOffset dx="5.0" dy="5.0" in="blurOut2" result="blurOut3"/><feBlend in="SourceGraphic" in2="blurOut3" mode="normal"/></filter></defs><g><text fill="#000000" font-family="sans-serif" font-size="22.5" lengthAdjust="spacingAndGlyphs" text-decoration="underline" textLength="220" x="514.375" y="23.3569">COM's Class Diagram</text><text fill="#000000" font-family="sans-serif" font-size="22.5" lengthAdjust="spacingAndGlyphs" textLength="0" x="627.5" y="51.6577"/><!--MD5=[4cbdae22ae30805c8ceb6d57ff550507]
cluster com--><polygon fill="#FFFFFF" filter="url(#fn70f7t1anjvl)" points="20,64.1016,63.75,64.1016,72.5,93.6133,1243.75,93.6133,1243.75,1199.1016,20,1199.1016,20,64.1016" style="stroke: #000000; stroke-width: 1.875;"/><line style="stroke: #000000; stroke-width: 1.875;" x1="20" x2="72.5" y1="93.6133" y2="93.6133"/><text fill="#000000" font-family="sans-serif" font-size="17.5" font-weight="bold" lengthAdjust="spacingAndGlyphs" textLength="36.25" x="25" y="84.7681">com</text><!--MD5=[75da9b4dfc6b340c693f79fd7a299640]
cluster com.level--><polygon fill="#FFFFFF" filter="url(#fn70f7t1anjvl)" points="515,119.1016,566.25,119.1016,575,148.6133,921.25,148.6133,921.25,595.9766,515,595.9766,515,119.1016" style="stroke: #000000; stroke-width: 1.875;"/><line style="stroke: #000000; stroke-width: 1.875;" x1="515" x2="575" y1="148.6133" y2="148.6133"/><text fill="#000000" font-family="sans-serif" font-size="17.5" font-weight="bold" lengthAdjust="spacingAndGlyphs" textLength="43.75" x="520" y="139.7681">level</text><!--MD5=[dd500e62226fac4ac972954955e2870b]
cluster com.model--><polygon fill="#FFFFFF" filter="url(#fn70f7t1anjvl)" points="951.25,375.3516,1012.5,375.3516,1021.25,404.8633,1213.75,404.8633,1213.75,877.8516,951.25,877.8516,951.25,375.3516" style="stroke: #000000; stroke-width: 1.875;"/><line style="stroke: #000000; stroke-width: 1.875;" x1="951.25" x2="1021.25" y1="404.8633" y2="404.8633"/><text fill="#000000" font-family="sans-serif" font-size="17.5" font-weight="bold" lengthAdjust="spacingAndGlyphs" textLength="53.75" x="956.25" y="396.0181">model</text><!--MD5=[af6ee63b89dfa7e2c92ea9442f9866a2]
cluster com.pawns--><polygon fill="#FFFFFF" filter="url(#fn70f7t1anjvl)" points="273.75,649.1016,337.5,649.1016,346.25,678.6133,921.25,678.6133,921.25,1169.1016,273.75,1169.1016,273.75,649.1016" style="stroke: #000000; stroke-width: 1.875;"/><line style="stroke: #000000; stroke-width: 1.875;" x1="273.75" x2="346.25" y1="678.6133" y2="678.6133"/><text fill="#000000" font-family="sans-serif" font-size="17.5" font-weight="bold" lengthAdjust="spacingAndGlyphs" textLength="56.25" x="278.75" y="669.7681">pawns</text><!--MD5=[87761342c65b136feb7c30b5dc8995a7]
cluster com.player--><polygon fill="#FFFFFF" filter="url(#fn70f7t1anjvl)" points="50,170.9766,111.25,170.9766,120,200.4883,485,200.4883,485,313.4766,50,313.4766,50,170.9766" style="stroke: #000000; stroke-width: 1.875;"/><line style="stroke: #000000; stroke-width: 1.875;" x1="50" x2="120" y1="200.4883" y2="200.4883"/><text fill="#000000" font-family="sans-serif" font-size="17.5" font-weight="bold" lengthAdjust="spacingAndGlyphs" textLength="53.75" x="55" y="191.6431">player</text><!--MD5=[e870e2f6feb38e55040cda04273695ae]
class com.level.Board--><rect codeLine="7" fill="#FEFECE" filter="url(#fn70f7t1anjvl)" height="181.0645" id="com.level.Board" style="stroke: #A80036; stroke-width: 1.875;" width="207.5" x="693.75" y="164.1016"/><ellipse cx="771.5625" cy="184.1016" fill="#ADD1B2" rx="13.75" ry="13.75" style="stroke: #A80036; stroke-width: 1.25;"/><path d="M774.0625,179.7266 Q774.3164,179.1016 774.6094,178.7891 Q774.9023,178.4766 775.2344,178.4766 Q775.8203,178.4766 776.1914,178.8281 Q776.5625,179.1797 776.5625,180 L776.5625,181.9531 Q776.5625,182.7734 776.2109,183.125 Q775.8594,183.4766 775.3125,183.4766 Q774.8242,183.4766 774.5117,183.2617 Q774.1992,183.0469 774.0625,182.4805 Q774.0039,182.0898 773.7891,181.875 Q773.3984,181.4648 772.6953,181.2305 Q771.9922,180.9766 771.2891,180.9766 Q770.4102,180.9766 769.668,181.3281 Q768.9453,181.6797 768.3789,182.4609 Q767.8125,183.2422 767.8125,184.3164 L767.8125,185.4688 Q767.8125,186.7578 768.8672,187.6172 Q769.9219,188.4766 771.7969,188.4766 Q772.9102,188.4766 773.6914,188.2227 Q774.1406,188.0859 774.6484,187.6367 Q774.9805,187.3828 775.1563,187.3047 Q775.332,187.2266 775.5469,187.2266 Q775.957,187.2266 776.25,187.5586 Q776.5625,187.8711 776.5625,188.3203 Q776.5625,188.75 776.1328,189.2578 Q775.5078,190 774.5117,190.4102 Q773.2031,190.9766 771.6016,190.9766 Q769.7266,190.9766 768.2227,190.2344 Q767.0117,189.6484 766.1523,188.3789 Q765.3125,187.1094 765.3125,185.6055 L765.3125,184.2383 Q765.3125,182.6758 766.0547,181.3086 Q766.8164,179.9414 768.125,179.2188 Q769.4531,178.4766 770.9375,178.4766 Q771.8359,178.4766 772.6172,178.7891 Q773.3984,179.1016 774.0625,179.7266 Z "/><text fill="#000000" font-family="sans-serif" font-size="15" lengthAdjust="spacingAndGlyphs" textLength="41.25" x="797.1875" y="190.2393">Board</text><line style="stroke: #A80036; stroke-width: 1.875;" x1="695" x2="900" y1="204.1016" y2="204.1016"/><rect fill="none" height="7.5" style="stroke: #C82930; stroke-width: 1.25;" width="7.5" x="703.75" y="214.1016"/><text fill="#000000" font-family="sans-serif" font-size="13.75" lengthAdjust="spacingAndGlyphs" textLength="88.75" x="718.75" y="223.3752">board : Field[][]</text><rect fill="none" height="7.5" style="stroke: #C82930; stroke-width: 1.25;" width="7.5" x="703.75" y="231.3965"/><text fill="#000000" font-family="sans-serif" font-size="13.75" lengthAdjust="spacingAndGlyphs" textLength="175" x="718.75" y="240.6702">graph : AdjacencyList&lt;Field&gt;</text><rect fill="none" height="7.5" style="stroke: #C82930; stroke-width: 1.25;" width="7.5" x="703.75" y="248.6914"/><text fill="#000000" font-family="sans-serif" font-size="13.75" lengthAdjust="spacingAndGlyphs" textLength="58.75" x="718.75" y="257.9651">sizeX : int</text><rect fill="none" height="7.5" style="stroke: #C82930; stroke-width: 1.25;" width="7.5" x="703.75" y="265.9863"/><text fill="#000000" font-family="sans-serif" font-size="13.75" lengthAdjust="spacingAndGlyphs" textLength="60" x="718.75" y="275.26">sizeY : int</text><line style="stroke: #A80036; stroke-width: 1.875;" x1="695" x2="900" y1="283.2813" y2="283.2813"/><ellipse cx="707.5" cy="297.0313" fill="#84BE84" rx="3.75" ry="3.75" style="stroke: #038048; stroke-width: 1.25;"/><text fill="#000000" font-family="sans-serif" font-size="13.75" lengthAdjust="spacingAndGlyphs" textLength="46.25" x="718.75" y="302.5549">Board()</text><rect fill="#F24D5C" height="7.5" style="stroke: #C82930; stroke-width: 1.25;" width="7.5" x="703.75" y="310.5762"/><text fill="#000000" font-family="sans-serif" font-size="13.75" lengthAdjust="spacingAndGlyphs" textLength="62.5" x="718.75" y="319.8499">initBoard()</text><rect fill="#F24D5C" height="7.5" style="stroke: #C82930; stroke-width: 1.25;" width="7.5" x="703.75" y="327.8711"/><text fill="#000000" font-family="sans-serif" font-size="13.75" lengthAdjust="spacingAndGlyphs" textLength="63.75" x="718.75" y="337.1448">initGraph()</text><!--MD5=[9c218422c5f2ed71f8f5fdd95633c447]
class com.level.Field--><rect codeLine="20" fill="#FEFECE" filter="url(#fn70f7t1anjvl)" height="111.8848" id="com.level.Field" style="stroke: #A80036; stroke-width: 1.875;" width="128.75" x="634.375" y="463.4766"/><ellipse cx="677.875" cy="483.4766" fill="#ADD1B2" rx="13.75" ry="13.75" style="stroke: #A80036; stroke-width: 1.25;"/><path d="M680.375,479.1016 Q680.6289,478.4766 680.9219,478.1641 Q681.2148,477.8516 681.5469,477.8516 Q682.1328,477.8516 682.5039,478.2031 Q682.875,478.5547 682.875,479.375 L682.875,481.3281 Q682.875,482.1484 682.5234,482.5 Q682.1719,482.8516 681.625,482.8516 Q681.1367,482.8516 680.8242,482.6367 Q680.5117,482.4219 680.375,481.8555 Q680.3164,481.4648 680.1016,481.25 Q679.7109,480.8398 679.0078,480.6055 Q678.3047,480.3516 677.6016,480.3516 Q676.7227,480.3516 675.9805,480.7031 Q675.2578,481.0547 674.6914,481.8359 Q674.125,482.6172 674.125,483.6914 L674.125,484.8438 Q674.125,486.1328 675.1797,486.9922 Q676.2344,487.8516 678.1094,487.8516 Q679.2227,487.8516 680.0039,487.5977 Q680.4531,487.4609 680.9609,487.0117 Q681.293,486.7578 681.4688,486.6797 Q681.6445,486.6016 681.8594,486.6016 Q682.2695,486.6016 682.5625,486.9336 Q682.875,487.2461 682.875,487.6953 Q682.875,488.125 682.4453,488.6328 Q681.8203,489.375 680.8242,489.7852 Q679.5156,490.3516 677.9141,490.3516 Q676.0391,490.3516 674.5352,489.6094 Q673.3242,489.0234 672.4648,487.7539 Q671.625,486.4844 671.625,484.9805 L671.625,483.6133 Q671.625,482.0508 672.3672,480.6836 Q673.1289,479.3164 674.4375,478.5938 Q675.7656,477.8516 677.25,477.8516 Q678.1484,477.8516 678.9297,478.1641 Q679.7109,478.4766 680.375,479.1016 Z "/><text fill="#000000" font-family="sans-serif" font-size="15" lengthAdjust="spacingAndGlyphs" textLength="33.75" x="700.875" y="489.6143">Field</text><line style="stroke: #A80036; stroke-width: 1.875;" x1="635.625" x2="761.875" y1="503.4766" y2="503.4766"/><rect fill="none" height="7.5" style="stroke: #C82930; stroke-width: 1.25;" width="7.5" x="644.375" y="513.4766"/><text fill="#000000" font-family="sans-serif" font-size="13.75" lengthAdjust="spacingAndGlyphs" textLength="96.25" x="659.375" y="522.7502">status : boolean</text><line style="stroke: #A80036; stroke-width: 1.875;" x1="635.625" x2="761.875" y1="530.7715" y2="530.7715"/><ellipse cx="648.125" cy="544.5215" fill="#84BE84" rx="3.75" ry="3.75" style="stroke: #038048; stroke-width: 1.25;"/><text fill="#000000" font-family="sans-serif" font-size="13.75" lengthAdjust="spacingAndGlyphs" textLength="67.5" x="659.375" y="550.0452">getStatus()</text><ellipse cx="648.125" cy="561.8164" fill="#84BE84" rx="3.75" ry="3.75" style="stroke: #038048; stroke-width: 1.25;"/><text fill="#000000" font-family="sans-serif" font-size="13.75" lengthAdjust="spacingAndGlyphs" textLength="67.5" x="659.375" y="567.3401">setStatus()</text><!--MD5=[90bb7c75785d7f8ac584efc9c4dba120]
class com.level.Level--><rect codeLine="29" fill="#FEFECE" filter="url(#fn70f7t1anjvl)" height="111.8848" id="com.level.Level" style="stroke: #A80036; stroke-width: 1.875;" width="115" x="535" y="198.4766"/><ellipse cx="571.1875" cy="218.4766" fill="#ADD1B2" rx="13.75" ry="13.75" style="stroke: #A80036; stroke-width: 1.25;"/><path d="M573.6875,214.1016 Q573.9414,213.4766 574.2344,213.1641 Q574.5273,212.8516 574.8594,212.8516 Q575.4453,212.8516 575.8164,213.2031 Q576.1875,213.5547 576.1875,214.375 L576.1875,216.3281 Q576.1875,217.1484 575.8359,217.5 Q575.4844,217.8516 574.9375,217.8516 Q574.4492,217.8516 574.1367,217.6367 Q573.8242,217.4219 573.6875,216.8555 Q573.6289,216.4648 573.4141,216.25 Q573.0234,215.8398 572.3203,215.6055 Q571.6172,215.3516 570.9141,215.3516 Q570.0352,215.3516 569.293,215.7031 Q568.5703,216.0547 568.0039,216.8359 Q567.4375,217.6172 567.4375,218.6914 L567.4375,219.8438 Q567.4375,221.1328 568.4922,221.9922 Q569.5469,222.8516 571.4219,222.8516 Q572.5352,222.8516 573.3164,222.5977 Q573.7656,222.4609 574.2734,222.0117 Q574.6055,221.7578 574.7813,221.6797 Q574.957,221.6016 575.1719,221.6016 Q575.582,221.6016 575.875,221.9336 Q576.1875,222.2461 576.1875,222.6953 Q576.1875,223.125 575.7578,223.6328 Q575.1328,224.375 574.1367,224.7852 Q572.8281,225.3516 571.2266,225.3516 Q569.3516,225.3516 567.8477,224.6094 Q566.6367,224.0234 565.7773,222.7539 Q564.9375,221.4844 564.9375,219.9805 L564.9375,218.6133 Q564.9375,217.0508 565.6797,215.6836 Q566.4414,214.3164 567.75,213.5938 Q569.0781,212.8516 570.5625,212.8516 Q571.4609,212.8516 572.2422,213.1641 Q573.0234,213.4766 573.6875,214.1016 Z "/><text fill="#000000" font-family="sans-serif" font-size="15" lengthAdjust="spacingAndGlyphs" textLength="36.25" x="592.5625" y="224.6143">Level</text><line style="stroke: #A80036; stroke-width: 1.875;" x1="536.25" x2="648.75" y1="238.4766" y2="238.4766"/><rect fill="none" height="7.5" style="stroke: #C82930; stroke-width: 1.25;" width="7.5" x="545" y="248.4766"/><text fill="#000000" font-family="sans-serif" font-size="13.75" lengthAdjust="spacingAndGlyphs" textLength="82.5" x="560" y="257.7502">board : Board</text><line style="stroke: #A80036; stroke-width: 1.875;" x1="536.25" x2="648.75" y1="265.7715" y2="265.7715"/><ellipse cx="548.75" cy="279.5215" fill="#84BE84" rx="3.75" ry="3.75" style="stroke: #038048; stroke-width: 1.25;"/><text fill="#000000" font-family="sans-serif" font-size="13.75" lengthAdjust="spacingAndGlyphs" textLength="42.5" x="560" y="285.0452">Level()</text><rect fill="#F24D5C" height="7.5" style="stroke: #C82930; stroke-width: 1.25;" width="7.5" x="545" y="293.0664"/><text fill="#000000" font-family="sans-serif" font-size="13.75" lengthAdjust="spacingAndGlyphs" textLength="62.5" x="560" y="302.3401">initBoard()</text><!--MD5=[8455fd880f169c32198fcd55c6711cf9]
class com.model.AdjacencyList--><rect codeLine="41" fill="#FEFECE" filter="url(#fn70f7t1anjvl)" height="198.3594" id="com.model.AdjacencyList" style="stroke: #A80036; stroke-width: 1.875;" width="222.5" x="971.25" y="420.3516"/><ellipse cx="1030.3125" cy="440.3516" fill="#ADD1B2" rx="13.75" ry="13.75" style="stroke: #A80036; stroke-width: 1.25;"/><path d="M1032.8125,435.9766 Q1033.0664,435.3516 1033.3594,435.0391 Q1033.6523,434.7266 1033.9844,434.7266 Q1034.5703,434.7266 1034.9414,435.0781 Q1035.3125,435.4297 1035.3125,436.25 L1035.3125,438.2031 Q1035.3125,439.0234 1034.9609,439.375 Q1034.6094,439.7266 1034.0625,439.7266 Q1033.5742,439.7266 1033.2617,439.5117 Q1032.9492,439.2969 1032.8125,438.7305 Q1032.7539,438.3398 1032.5391,438.125 Q1032.1484,437.7148 1031.4453,437.4805 Q1030.7422,437.2266 1030.0391,437.2266 Q1029.1602,437.2266 1028.418,437.5781 Q1027.6953,437.9297 1027.1289,438.7109 Q1026.5625,439.4922 1026.5625,440.5664 L1026.5625,441.7188 Q1026.5625,443.0078 1027.6172,443.8672 Q1028.6719,444.7266 1030.5469,444.7266 Q1031.6602,444.7266 1032.4414,444.4727 Q1032.8906,444.3359 1033.3984,443.8867 Q1033.7305,443.6328 1033.9063,443.5547 Q1034.082,443.4766 1034.2969,443.4766 Q1034.707,443.4766 1035,443.8086 Q1035.3125,444.1211 1035.3125,444.5703 Q1035.3125,445 1034.8828,445.5078 Q1034.2578,446.25 1033.2617,446.6602 Q1031.9531,447.2266 1030.3516,447.2266 Q1028.4766,447.2266 1026.9727,446.4844 Q1025.7617,445.8984 1024.9023,444.6289 Q1024.0625,443.3594 1024.0625,441.8555 L1024.0625,440.4883 Q1024.0625,438.9258 1024.8047,437.5586 Q1025.5664,436.1914 1026.875,435.4688 Q1028.2031,434.7266 1029.6875,434.7266 Q1030.5859,434.7266 1031.3672,435.0391 Q1032.1484,435.3516 1032.8125,435.9766 Z "/><text fill="#000000" font-family="sans-serif" font-size="15" lengthAdjust="spacingAndGlyphs" textLength="93.75" x="1055.9375" y="446.4893">AdjacencyList</text><line style="stroke: #A80036; stroke-width: 1.875;" x1="972.5" x2="1192.5" y1="460.3516" y2="460.3516"/><polygon fill="none" points="985,469.1016,980,476.6016,990,476.6016" style="stroke: #1963A0; stroke-width: 1.25;"/><text fill="#000000" font-family="sans-serif" font-size="13.75" lengthAdjust="spacingAndGlyphs" textLength="190" x="996.25" y="479.6252">vertices : HashSet&lt;Vertex&lt;T&gt;&gt;</text><line style="stroke: #A80036; stroke-width: 1.875;" x1="972.5" x2="1192.5" y1="487.6465" y2="487.6465"/><ellipse cx="985" cy="501.3965" fill="#84BE84" rx="3.75" ry="3.75" style="stroke: #038048; stroke-width: 1.25;"/><text fill="#000000" font-family="sans-serif" font-size="13.75" lengthAdjust="spacingAndGlyphs" textLength="62.5" x="996.25" y="506.9202">addEdge()</text><ellipse cx="985" cy="518.6914" fill="#84BE84" rx="3.75" ry="3.75" style="stroke: #038048; stroke-width: 1.25;"/><text fill="#000000" font-family="sans-serif" font-size="13.75" lengthAdjust="spacingAndGlyphs" textLength="73.75" x="996.25" y="524.2151">addVertex()</text><ellipse cx="985" cy="535.9863" fill="#84BE84" rx="3.75" ry="3.75" style="stroke: #038048; stroke-width: 1.25;"/><text fill="#000000" font-family="sans-serif" font-size="13.75" lengthAdjust="spacingAndGlyphs" textLength="95" x="996.25" y="541.51">getAllVertices()</text><ellipse cx="985" cy="553.2813" fill="#84BE84" rx="3.75" ry="3.75" style="stroke: #038048; stroke-width: 1.25;"/><text fill="#000000" font-family="sans-serif" font-size="13.75" lengthAdjust="spacingAndGlyphs" textLength="97.5" x="996.25" y="558.8049">getNeighbours()</text><ellipse cx="985" cy="570.5762" fill="#84BE84" rx="3.75" ry="3.75" style="stroke: #038048; stroke-width: 1.25;"/><text fill="#000000" font-family="sans-serif" font-size="13.75" lengthAdjust="spacingAndGlyphs" textLength="85" x="996.25" y="576.0999">removeEdge()</text><ellipse cx="985" cy="587.8711" fill="#84BE84" rx="3.75" ry="3.75" style="stroke: #038048; stroke-width: 1.25;"/><text fill="#000000" font-family="sans-serif" font-size="13.75" lengthAdjust="spacingAndGlyphs" textLength="96.25" x="996.25" y="593.3948">removeVertex()</text><rect fill="#F24D5C" height="7.5" style="stroke: #C82930; stroke-width: 1.25;" width="7.5" x="981.25" y="601.416"/><text fill="#000000" font-family="sans-serif" font-size="13.75" lengthAdjust="spacingAndGlyphs" textLength="70" x="996.25" y="610.6897">getVertex()</text><!--MD5=[877359e012368ef9406b10f0a7c97e1e]
class com.model.AdjacencyList.Vertex--><rect codeLine="55" fill="#FEFECE" filter="url(#fn70f7t1anjvl)" height="129.1797" id="com.model.AdjacencyList.Vertex" style="stroke: #A80036; stroke-width: 1.875;" width="191.25" x="986.875" y="729.1016"/><ellipse cx="1011.25" cy="749.1016" fill="#ADD1B2" rx="13.75" ry="13.75" style="stroke: #A80036; stroke-width: 1.25;"/><path d="M1013.75,744.7266 Q1014.0039,744.1016 1014.2969,743.7891 Q1014.5898,743.4766 1014.9219,743.4766 Q1015.5078,743.4766 1015.8789,743.8281 Q1016.25,744.1797 1016.25,745 L1016.25,746.9531 Q1016.25,747.7734 1015.8984,748.125 Q1015.5469,748.4766 1015,748.4766 Q1014.5117,748.4766 1014.1992,748.2617 Q1013.8867,748.0469 1013.75,747.4805 Q1013.6914,747.0898 1013.4766,746.875 Q1013.0859,746.4648 1012.3828,746.2305 Q1011.6797,745.9766 1010.9766,745.9766 Q1010.0977,745.9766 1009.3555,746.3281 Q1008.6328,746.6797 1008.0664,747.4609 Q1007.5,748.2422 1007.5,749.3164 L1007.5,750.4688 Q1007.5,751.7578 1008.5547,752.6172 Q1009.6094,753.4766 1011.4844,753.4766 Q1012.5977,753.4766 1013.3789,753.2227 Q1013.8281,753.0859 1014.3359,752.6367 Q1014.668,752.3828 1014.8438,752.3047 Q1015.0195,752.2266 1015.2344,752.2266 Q1015.6445,752.2266 1015.9375,752.5586 Q1016.25,752.8711 1016.25,753.3203 Q1016.25,753.75 1015.8203,754.2578 Q1015.1953,755 1014.1992,755.4102 Q1012.8906,755.9766 1011.2891,755.9766 Q1009.4141,755.9766 1007.9102,755.2344 Q1006.6992,754.6484 1005.8398,753.3789 Q1005,752.1094 1005,750.6055 L1005,749.2383 Q1005,747.6758 1005.7422,746.3086 Q1006.5039,744.9414 1007.8125,744.2188 Q1009.1406,743.4766 1010.625,743.4766 Q1011.5234,743.4766 1012.3047,743.7891 Q1013.0859,744.1016 1013.75,744.7266 Z "/><text fill="#000000" font-family="sans-serif" font-size="15" lengthAdjust="spacingAndGlyphs" textLength="138.75" x="1030" y="755.2393">AdjacencyList.Vertex</text><line style="stroke: #A80036; stroke-width: 1.875;" x1="988.125" x2="1176.875" y1="769.1016" y2="769.1016"/><rect fill="none" height="7.5" style="stroke: #C82930; stroke-width: 1.25;" width="7.5" x="996.875" y="779.1016"/><text fill="#000000" font-family="sans-serif" font-size="13.75" lengthAdjust="spacingAndGlyphs" textLength="42.5" x="1011.875" y="788.3752">self : S</text><rect fill="none" height="7.5" style="stroke: #C82930; stroke-width: 1.25;" width="7.5" x="996.875" y="796.3965"/><text fill="#000000" font-family="sans-serif" font-size="13.75" lengthAdjust="spacingAndGlyphs" textLength="158.75" x="1011.875" y="805.6702">neighbours : ArrayList&lt;S&gt;</text><line style="stroke: #A80036; stroke-width: 1.875;" x1="988.125" x2="1176.875" y1="813.6914" y2="813.6914"/><ellipse cx="1000.625" cy="827.4414" fill="#84BE84" rx="3.75" ry="3.75" style="stroke: #038048; stroke-width: 1.25;"/><text fill="#000000" font-family="sans-serif" font-size="13.75" lengthAdjust="spacingAndGlyphs" textLength="51.25" x="1011.875" y="832.9651">Vertex()</text><ellipse cx="1000.625" cy="844.7363" fill="#84BE84" rx="3.75" ry="3.75" style="stroke: #038048; stroke-width: 1.25;"/><text fill="#000000" font-family="sans-serif" font-size="13.75" lengthAdjust="spacingAndGlyphs" textLength="42.5" x="1011.875" y="850.26">same()</text><!--MD5=[885d01ffc7ed0a75dd194cccb2bb60a4]
class com.pawns.Attack--><rect codeLine="70" fill="#FEFECE" filter="url(#fn70f7t1anjvl)" height="111.8848" id="com.pawns.Attack" style="stroke: #A80036; stroke-width: 1.875;" width="138.75" x="464.375" y="737.2266"/><ellipse cx="508.4375" cy="757.2266" fill="#A9DCDF" rx="13.75" ry="13.75" style="stroke: #A80036; stroke-width: 1.25;"/><path d="M510.625,759.1016 L506.5039,759.1016 L505.957,760.3516 L505.957,760.3516 L506.543,760.3516 L507.1875,761.1328 L507.1875,761.6016 L507.1875,762.0703 L506.543,762.8516 L505.957,762.8516 L503.5938,762.8516 L502.832,762.8516 L502.1875,762.0703 L502.1875,761.6016 L502.1875,761.1328 L502.832,760.3516 L503.5938,760.3516 L506.4844,752.8516 L505.3906,752.8516 L504.082,752.8516 L503.4375,752.0703 L503.4375,751.6016 L503.4375,751.1328 L504.082,750.3516 L505.3906,750.3516 L509.9805,750.3516 L513.3398,760.3516 L514.043,760.3516 L514.043,760.3516 L514.6875,761.1328 L514.6875,761.6016 L514.6875,762.0703 L514.043,762.8516 L513.3398,762.8516 L510.9766,762.8516 L510.332,762.8516 L509.6875,762.0703 L509.6875,761.6016 L509.6875,761.1328 L510.332,760.3516 L510.9766,760.3516 L510.9766,760.3516 L510.625,759.1016 Z M509.9414,756.6016 L508.4375,752.1289 L507.1484,756.6016 L509.9414,756.6016 Z "/><text fill="#000000" font-family="sans-serif" font-size="15" font-style="italic" lengthAdjust="spacingAndGlyphs" textLength="42.5" x="531.5625" y="763.3643">Attack</text><line style="stroke: #A80036; stroke-width: 1.875;" x1="465.625" x2="601.875" y1="777.2266" y2="777.2266"/><rect fill="none" height="7.5" style="stroke: #C82930; stroke-width: 1.25;" width="7.5" x="474.375" y="787.2266"/><text fill="#000000" font-family="sans-serif" font-size="13.75" lengthAdjust="spacingAndGlyphs" textLength="98.75" x="489.375" y="796.5002">magnitude : byte</text><rect fill="none" height="7.5" style="stroke: #C82930; stroke-width: 1.25;" width="7.5" x="474.375" y="804.5215"/><text fill="#000000" font-family="sans-serif" font-size="13.75" lengthAdjust="spacingAndGlyphs" textLength="72.5" x="489.375" y="813.7952">range : byte</text><rect fill="none" height="7.5" style="stroke: #C82930; stroke-width: 1.25;" width="7.5" x="474.375" y="821.8164"/><text fill="#000000" font-family="sans-serif" font-size="13.75" lengthAdjust="spacingAndGlyphs" textLength="106.25" x="489.375" y="831.0901">type : AttackType</text><line style="stroke: #A80036; stroke-width: 1.875;" x1="465.625" x2="601.875" y1="839.1113" y2="839.1113"/><!--MD5=[69e8ada7e48cbf99c6f3e559f261e547]
class com.pawns.AttackType--><rect codeLine="79" fill="#FEFECE" filter="url(#fn70f7t1anjvl)" height="111.8848" id="com.pawns.AttackType" style="stroke: #A80036; stroke-width: 1.875;" width="112.5" x="647.5" y="737.2266"/><ellipse cx="666.25" cy="757.2266" fill="#EB937F" rx="13.75" ry="13.75" style="stroke: #A80036; stroke-width: 1.25;"/><path d="M664.375,758.4766 L664.375,760.9766 L669.375,760.9766 L669.375,759.7266 L669.375,759.1211 L670.1563,758.4766 L670.625,758.4766 L671.0938,758.4766 L671.875,759.1211 L671.875,759.7266 L671.875,763.4766 L661.875,763.4766 L661.2695,763.4766 L660.625,762.6953 L660.625,762.2266 L660.625,761.7578 L661.2695,760.9766 L661.875,760.9766 L661.875,760.9766 L661.875,753.4766 L661.875,753.4766 L661.2695,753.4766 L660.625,752.6953 L660.625,752.2266 L660.625,751.7578 L661.2695,750.9766 L661.875,750.9766 L671.875,750.9766 L671.875,754.7266 L671.875,755.332 L671.0938,755.9766 L670.625,755.9766 L670.1563,755.9766 L669.375,755.332 L669.375,754.7266 L669.375,753.4766 L664.375,753.4766 L664.375,755.9766 L665.625,755.9766 L665.625,755.3711 L665.625,755.3711 L666.4063,754.7266 L666.875,754.7266 L667.3438,754.7266 L668.125,755.3711 L668.125,755.9766 L668.125,758.4766 L668.125,759.082 L667.3438,759.7266 L667.3438,759.7266 L666.875,759.7266 L666.4063,759.7266 L665.625,759.082 L665.625,759.082 L665.625,758.4766 L664.375,758.4766 Z "/><text fill="#000000" font-family="sans-serif" font-size="15" lengthAdjust="spacingAndGlyphs" textLength="72.5" x="683.75" y="763.3643">AttackType</text><line style="stroke: #A80036; stroke-width: 1.875;" x1="648.75" x2="758.75" y1="777.2266" y2="777.2266"/><text fill="#000000" font-family="sans-serif" font-size="13.75" lengthAdjust="spacingAndGlyphs" textLength="50" x="655" y="796.5002">HEALTH</text><text fill="#000000" font-family="sans-serif" font-size="13.75" lengthAdjust="spacingAndGlyphs" textLength="27.5" x="655" y="813.7952">SIZE</text><text fill="#000000" font-family="sans-serif" font-size="13.75" lengthAdjust="spacingAndGlyphs" textLength="40" x="655" y="831.0901">SPEED</text><line style="stroke: #A80036; stroke-width: 1.875;" x1="648.75" x2="758.75" y1="839.1113" y2="839.1113"/><!--MD5=[3aaeb8279b758e1c049d73530854cde0]
class com.pawns.Bite--><rect codeLine="88" fill="#FEFECE" filter="url(#fn70f7t1anjvl)" height="77.2949" id="com.pawns.Bite" style="stroke: #A80036; stroke-width: 1.875;" width="96.25" x="804.375" y="754.7266"/><ellipse cx="836.625" cy="774.7266" fill="#ADD1B2" rx="13.75" ry="13.75" style="stroke: #A80036; stroke-width: 1.25;"/><path d="M839.125,770.3516 Q839.3789,769.7266 839.6719,769.4141 Q839.9648,769.1016 840.2969,769.1016 Q840.8828,769.1016 841.2539,769.4531 Q841.625,769.8047 841.625,770.625 L841.625,772.5781 Q841.625,773.3984 841.2734,773.75 Q840.9219,774.1016 840.375,774.1016 Q839.8867,774.1016 839.5742,773.8867 Q839.2617,773.6719 839.125,773.1055 Q839.0664,772.7148 838.8516,772.5 Q838.4609,772.0898 837.7578,771.8555 Q837.0547,771.6016 836.3516,771.6016 Q835.4727,771.6016 834.7305,771.9531 Q834.0078,772.3047 833.4414,773.0859 Q832.875,773.8672 832.875,774.9414 L832.875,776.0938 Q832.875,777.3828 833.9297,778.2422 Q834.9844,779.1016 836.8594,779.1016 Q837.9727,779.1016 838.7539,778.8477 Q839.2031,778.7109 839.7109,778.2617 Q840.043,778.0078 840.2188,777.9297 Q840.3945,777.8516 840.6094,777.8516 Q841.0195,777.8516 841.3125,778.1836 Q841.625,778.4961 841.625,778.9453 Q841.625,779.375 841.1953,779.8828 Q840.5703,780.625 839.5742,781.0352 Q838.2656,781.6016 836.6641,781.6016 Q834.7891,781.6016 833.2852,780.8594 Q832.0742,780.2734 831.2148,779.0039 Q830.375,777.7344 830.375,776.2305 L830.375,774.8633 Q830.375,773.3008 831.1172,771.9336 Q831.8789,770.5664 833.1875,769.8438 Q834.5156,769.1016 836,769.1016 Q836.8984,769.1016 837.6797,769.4141 Q838.4609,769.7266 839.125,770.3516 Z "/><text fill="#000000" font-family="sans-serif" font-size="15" lengthAdjust="spacingAndGlyphs" textLength="26.25" x="857.125" y="780.8643">Bite</text><line style="stroke: #A80036; stroke-width: 1.875;" x1="805.625" x2="899.375" y1="794.7266" y2="794.7266"/><line style="stroke: #A80036; stroke-width: 1.875;" x1="805.625" x2="899.375" y1="804.7266" y2="804.7266"/><polygon fill="#4177AF" points="818.125,813.4766,813.125,820.9766,823.125,820.9766" style="stroke: #1963A0; stroke-width: 1.25;"/><text fill="#000000" font-family="sans-serif" font-size="13.75" lengthAdjust="spacingAndGlyphs" textLength="63.75" x="829.375" y="824.0002">doAttack()</text><!--MD5=[247a3712427016bc7e3c682d8e772d7e]
class com.pawns.Body--><rect codeLine="95" fill="#FEFECE" filter="url(#fn70f7t1anjvl)" height="111.8848" id="com.pawns.Body" style="stroke: #A80036; stroke-width: 1.875;" width="136.25" x="456.875" y="1002.2266"/><ellipse cx="503.75" cy="1022.2266" fill="#ADD1B2" rx="13.75" ry="13.75" style="stroke: #A80036; stroke-width: 1.25;"/><path d="M506.25,1017.8516 Q506.5039,1017.2266 506.7969,1016.9141 Q507.0898,1016.6016 507.4219,1016.6016 Q508.0078,1016.6016 508.3789,1016.9531 Q508.75,1017.3047 508.75,1018.125 L508.75,1020.0781 Q508.75,1020.8984 508.3984,1021.25 Q508.0469,1021.6016 507.5,1021.6016 Q507.0117,1021.6016 506.6992,1021.3867 Q506.3867,1021.1719 506.25,1020.6055 Q506.1914,1020.2148 505.9766,1020 Q505.5859,1019.5898 504.8828,1019.3555 Q504.1797,1019.1016 503.4766,1019.1016 Q502.5977,1019.1016 501.8555,1019.4531 Q501.1328,1019.8047 500.5664,1020.5859 Q500,1021.3672 500,1022.4414 L500,1023.5938 Q500,1024.8828 501.0547,1025.7422 Q502.1094,1026.6016 503.9844,1026.6016 Q505.0977,1026.6016 505.8789,1026.3477 Q506.3281,1026.2109 506.8359,1025.7617 Q507.168,1025.5078 507.3438,1025.4297 Q507.5195,1025.3516 507.7344,1025.3516 Q508.1445,1025.3516 508.4375,1025.6836 Q508.75,1025.9961 508.75,1026.4453 Q508.75,1026.875 508.3203,1027.3828 Q507.6953,1028.125 506.6992,1028.5352 Q505.3906,1029.1016 503.7891,1029.1016 Q501.9141,1029.1016 500.4102,1028.3594 Q499.1992,1027.7734 498.3398,1026.5039 Q497.5,1025.2344 497.5,1023.7305 L497.5,1022.3633 Q497.5,1020.8008 498.2422,1019.4336 Q499.0039,1018.0664 500.3125,1017.3438 Q501.6406,1016.6016 503.125,1016.6016 Q504.0234,1016.6016 504.8047,1016.9141 Q505.5859,1017.2266 506.25,1017.8516 Z "/><text fill="#000000" font-family="sans-serif" font-size="15" lengthAdjust="spacingAndGlyphs" textLength="33.75" x="527.5" y="1028.3643">Body</text><line style="stroke: #A80036; stroke-width: 1.875;" x1="458.125" x2="591.875" y1="1042.2266" y2="1042.2266"/><rect fill="none" height="7.5" style="stroke: #C82930; stroke-width: 1.25;" width="7.5" x="466.875" y="1052.2266"/><text fill="#000000" font-family="sans-serif" font-size="13.75" lengthAdjust="spacingAndGlyphs" textLength="76.25" x="481.875" y="1061.5002">head : Pawn</text><rect fill="none" height="7.5" style="stroke: #C82930; stroke-width: 1.25;" width="7.5" x="466.875" y="1069.5215"/><text fill="#000000" font-family="sans-serif" font-size="13.75" lengthAdjust="spacingAndGlyphs" textLength="103.75" x="481.875" y="1078.7952">position : Position</text><line style="stroke: #A80036; stroke-width: 1.875;" x1="458.125" x2="591.875" y1="1086.8164" y2="1086.8164"/><ellipse cx="470.625" cy="1100.5664" fill="#84BE84" rx="3.75" ry="3.75" style="stroke: #038048; stroke-width: 1.25;"/><text fill="#000000" font-family="sans-serif" font-size="13.75" lengthAdjust="spacingAndGlyphs" textLength="41.25" x="481.875" y="1106.0901">Body()</text><!--MD5=[c18dd3eeccff6019024edbbb2f531c09]
class com.pawns.Bug--><rect codeLine="104" fill="#FEFECE" filter="url(#fn70f7t1anjvl)" height="94.5898" id="com.pawns.Bug" style="stroke: #A80036; stroke-width: 1.875;" width="78.75" x="636.875" y="1010.9766"/><ellipse cx="660.6875" cy="1030.9766" fill="#ADD1B2" rx="13.75" ry="13.75" style="stroke: #A80036; stroke-width: 1.25;"/><path d="M663.1875,1026.6016 Q663.4414,1025.9766 663.7344,1025.6641 Q664.0273,1025.3516 664.3594,1025.3516 Q664.9453,1025.3516 665.3164,1025.7031 Q665.6875,1026.0547 665.6875,1026.875 L665.6875,1028.8281 Q665.6875,1029.6484 665.3359,1030 Q664.9844,1030.3516 664.4375,1030.3516 Q663.9492,1030.3516 663.6367,1030.1367 Q663.3242,1029.9219 663.1875,1029.3555 Q663.1289,1028.9648 662.9141,1028.75 Q662.5234,1028.3398 661.8203,1028.1055 Q661.1172,1027.8516 660.4141,1027.8516 Q659.5352,1027.8516 658.793,1028.2031 Q658.0703,1028.5547 657.5039,1029.3359 Q656.9375,1030.1172 656.9375,1031.1914 L656.9375,1032.3438 Q656.9375,1033.6328 657.9922,1034.4922 Q659.0469,1035.3516 660.9219,1035.3516 Q662.0352,1035.3516 662.8164,1035.0977 Q663.2656,1034.9609 663.7734,1034.5117 Q664.1055,1034.2578 664.2813,1034.1797 Q664.457,1034.1016 664.6719,1034.1016 Q665.082,1034.1016 665.375,1034.4336 Q665.6875,1034.7461 665.6875,1035.1953 Q665.6875,1035.625 665.2578,1036.1328 Q664.6328,1036.875 663.6367,1037.2852 Q662.3281,1037.8516 660.7266,1037.8516 Q658.8516,1037.8516 657.3477,1037.1094 Q656.1367,1036.5234 655.2773,1035.2539 Q654.4375,1033.9844 654.4375,1032.4805 L654.4375,1031.1133 Q654.4375,1029.5508 655.1797,1028.1836 Q655.9414,1026.8164 657.25,1026.0938 Q658.5781,1025.3516 660.0625,1025.3516 Q660.9609,1025.3516 661.7422,1025.6641 Q662.5234,1025.9766 663.1875,1026.6016 Z "/><text fill="#000000" font-family="sans-serif" font-size="15" lengthAdjust="spacingAndGlyphs" textLength="27.5" x="679.3125" y="1037.1143">Bug</text><line style="stroke: #A80036; stroke-width: 1.875;" x1="638.125" x2="714.375" y1="1050.9766" y2="1050.9766"/><line style="stroke: #A80036; stroke-width: 1.875;" x1="638.125" x2="714.375" y1="1060.9766" y2="1060.9766"/><polygon fill="#4177AF" points="650.625,1069.7266,645.625,1077.2266,655.625,1077.2266" style="stroke: #1963A0; stroke-width: 1.25;"/><text fill="#000000" font-family="sans-serif" font-size="13.75" lengthAdjust="spacingAndGlyphs" textLength="46.25" x="661.875" y="1080.2502">attack()</text><polygon fill="#4177AF" points="650.625,1087.0215,645.625,1094.5215,655.625,1094.5215" style="stroke: #1963A0; stroke-width: 1.25;"/><text fill="#000000" font-family="sans-serif" font-size="13.75" lengthAdjust="spacingAndGlyphs" textLength="42.5" x="661.875" y="1097.5452">move()</text><!--MD5=[e438c5fc7a44165b9987e8c559f9b49b]
class com.pawns.Pawn--><rect codeLine="112" fill="#FEFECE" filter="url(#fn70f7t1anjvl)" height="198.3594" id="com.pawns.Pawn" style="stroke: #A80036; stroke-width: 1.875;" width="126.25" x="294.375" y="694.1016"/><ellipse cx="335.0625" cy="714.1016" fill="#A9DCDF" rx="13.75" ry="13.75" style="stroke: #A80036; stroke-width: 1.25;"/><path d="M337.25,715.9766 L333.1289,715.9766 L332.582,717.2266 L332.582,717.2266 L333.168,717.2266 L333.8125,718.0078 L333.8125,718.4766 L333.8125,718.9453 L333.168,719.7266 L332.582,719.7266 L330.2188,719.7266 L329.457,719.7266 L328.8125,718.9453 L328.8125,718.4766 L328.8125,718.0078 L329.457,717.2266 L330.2188,717.2266 L333.1094,709.7266 L332.0156,709.7266 L330.707,709.7266 L330.0625,708.9453 L330.0625,708.4766 L330.0625,708.0078 L330.707,707.2266 L332.0156,707.2266 L336.6055,707.2266 L339.9648,717.2266 L340.668,717.2266 L340.668,717.2266 L341.3125,718.0078 L341.3125,718.4766 L341.3125,718.9453 L340.668,719.7266 L339.9648,719.7266 L337.6016,719.7266 L336.957,719.7266 L336.3125,718.9453 L336.3125,718.4766 L336.3125,718.0078 L336.957,717.2266 L337.6016,717.2266 L337.6016,717.2266 L337.25,715.9766 Z M336.5664,713.4766 L335.0625,709.0039 L333.7734,713.4766 L336.5664,713.4766 Z "/><text fill="#000000" font-family="sans-serif" font-size="15" font-style="italic" lengthAdjust="spacingAndGlyphs" textLength="37.5" x="357.4375" y="720.2393">Pawn</text><line style="stroke: #A80036; stroke-width: 1.875;" x1="295.625" x2="419.375" y1="734.1016" y2="734.1016"/><rect fill="none" height="7.5" style="stroke: #C82930; stroke-width: 1.25;" width="7.5" x="304.375" y="744.1016"/><text fill="#000000" font-family="sans-serif" font-size="13.75" lengthAdjust="spacingAndGlyphs" textLength="93.75" x="319.375" y="753.3752">attack1 : Attack</text><rect fill="none" height="7.5" style="stroke: #C82930; stroke-width: 1.25;" width="7.5" x="304.375" y="761.3965"/><text fill="#000000" font-family="sans-serif" font-size="13.75" lengthAdjust="spacingAndGlyphs" textLength="93.75" x="319.375" y="770.6702">attack2 : Attack</text><rect fill="none" height="7.5" style="stroke: #C82930; stroke-width: 1.25;" width="7.5" x="304.375" y="778.6914"/><text fill="#000000" font-family="sans-serif" font-size="13.75" lengthAdjust="spacingAndGlyphs" textLength="87.5" x="319.375" y="787.9651">maxHealth : int</text><rect fill="none" height="7.5" style="stroke: #C82930; stroke-width: 1.25;" width="7.5" x="304.375" y="795.9863"/><text fill="#000000" font-family="sans-serif" font-size="13.75" lengthAdjust="spacingAndGlyphs" textLength="81.25" x="319.375" y="805.26">mvRange : int</text><rect fill="none" height="7.5" style="stroke: #C82930; stroke-width: 1.25;" width="7.5" x="304.375" y="813.2813"/><text fill="#000000" font-family="sans-serif" font-size="13.75" lengthAdjust="spacingAndGlyphs" textLength="62.5" x="319.375" y="822.5549">speed : int</text><line style="stroke: #A80036; stroke-width: 1.875;" x1="295.625" x2="419.375" y1="830.5762" y2="830.5762"/><ellipse cx="308.125" cy="844.3262" fill="#84BE84" rx="3.75" ry="3.75" style="stroke: #038048; stroke-width: 1.25;"/><text fill="#000000" font-family="sans-serif" font-size="13.75" lengthAdjust="spacingAndGlyphs" textLength="45" x="319.375" y="849.8499">Pawn()</text><polygon fill="#4177AF" points="308.125,856.6211,303.125,864.1211,313.125,864.1211" style="stroke: #1963A0; stroke-width: 1.25;"/><text fill="#000000" font-family="sans-serif" font-size="13.75" font-style="italic" lengthAdjust="spacingAndGlyphs" textLength="47.5" x="319.375" y="867.1448">attack()</text><polygon fill="#4177AF" points="308.125,873.916,303.125,881.416,313.125,881.416" style="stroke: #1963A0; stroke-width: 1.25;"/><text fill="#000000" font-family="sans-serif" font-size="13.75" font-style="italic" lengthAdjust="spacingAndGlyphs" textLength="42.5" x="319.375" y="884.4397">move()</text><!--MD5=[93e78c354c34b5b9e379891df5ae06c5]
class com.pawns.PawnSegment--><rect codeLine="126" fill="#FEFECE" filter="url(#fn70f7t1anjvl)" height="60" id="com.pawns.PawnSegment" style="stroke: #A80036; stroke-width: 1.875;" width="141.25" x="759.375" y="1028.4766"/><ellipse cx="778.125" cy="1048.4766" fill="#ADD1B2" rx="13.75" ry="13.75" style="stroke: #A80036; stroke-width: 1.25;"/><path d="M780.625,1044.1016 Q780.8789,1043.4766 781.1719,1043.1641 Q781.4648,1042.8516 781.7969,1042.8516 Q782.3828,1042.8516 782.7539,1043.2031 Q783.125,1043.5547 783.125,1044.375 L783.125,1046.3281 Q783.125,1047.1484 782.7734,1047.5 Q782.4219,1047.8516 781.875,1047.8516 Q781.3867,1047.8516 781.0742,1047.6367 Q780.7617,1047.4219 780.625,1046.8555 Q780.5664,1046.4648 780.3516,1046.25 Q779.9609,1045.8398 779.2578,1045.6055 Q778.5547,1045.3516 777.8516,1045.3516 Q776.9727,1045.3516 776.2305,1045.7031 Q775.5078,1046.0547 774.9414,1046.8359 Q774.375,1047.6172 774.375,1048.6914 L774.375,1049.8438 Q774.375,1051.1328 775.4297,1051.9922 Q776.4844,1052.8516 778.3594,1052.8516 Q779.4727,1052.8516 780.2539,1052.5977 Q780.7031,1052.4609 781.2109,1052.0117 Q781.543,1051.7578 781.7188,1051.6797 Q781.8945,1051.6016 782.1094,1051.6016 Q782.5195,1051.6016 782.8125,1051.9336 Q783.125,1052.2461 783.125,1052.6953 Q783.125,1053.125 782.6953,1053.6328 Q782.0703,1054.375 781.0742,1054.7852 Q779.7656,1055.3516 778.1641,1055.3516 Q776.2891,1055.3516 774.7852,1054.6094 Q773.5742,1054.0234 772.7148,1052.7539 Q771.875,1051.4844 771.875,1049.9805 L771.875,1048.6133 Q771.875,1047.0508 772.6172,1045.6836 Q773.3789,1044.3164 774.6875,1043.5938 Q776.0156,1042.8516 777.5,1042.8516 Q778.3984,1042.8516 779.1797,1043.1641 Q779.9609,1043.4766 780.625,1044.1016 Z "/><text fill="#000000" font-family="sans-serif" font-size="15" lengthAdjust="spacingAndGlyphs" textLength="101.25" x="795.625" y="1054.6143">PawnSegment</text><line style="stroke: #A80036; stroke-width: 1.875;" x1="760.625" x2="899.375" y1="1068.4766" y2="1068.4766"/><line style="stroke: #A80036; stroke-width: 1.875;" x1="760.625" x2="899.375" y1="1078.4766" y2="1078.4766"/><!--MD5=[8a61d659a01daf3bfff75dc2cc05e2ac]
class com.pawns.Position--><rect codeLine="132" fill="#FEFECE" filter="url(#fn70f7t1anjvl)" height="181.0645" id="com.pawns.Position" style="stroke: #A80036; stroke-width: 1.875;" width="96.25" x="309.375" y="967.8516"/><ellipse cx="328.125" cy="987.8516" fill="#ADD1B2" rx="13.75" ry="13.75" style="stroke: #A80036; stroke-width: 1.25;"/><path d="M330.625,983.4766 Q330.8789,982.8516 331.1719,982.5391 Q331.4648,982.2266 331.7969,982.2266 Q332.3828,982.2266 332.7539,982.5781 Q333.125,982.9297 333.125,983.75 L333.125,985.7031 Q333.125,986.5234 332.7734,986.875 Q332.4219,987.2266 331.875,987.2266 Q331.3867,987.2266 331.0742,987.0117 Q330.7617,986.7969 330.625,986.2305 Q330.5664,985.8398 330.3516,985.625 Q329.9609,985.2148 329.2578,984.9805 Q328.5547,984.7266 327.8516,984.7266 Q326.9727,984.7266 326.2305,985.0781 Q325.5078,985.4297 324.9414,986.2109 Q324.375,986.9922 324.375,988.0664 L324.375,989.2188 Q324.375,990.5078 325.4297,991.3672 Q326.4844,992.2266 328.3594,992.2266 Q329.4727,992.2266 330.2539,991.9727 Q330.7031,991.8359 331.2109,991.3867 Q331.543,991.1328 331.7188,991.0547 Q331.8945,990.9766 332.1094,990.9766 Q332.5195,990.9766 332.8125,991.3086 Q333.125,991.6211 333.125,992.0703 Q333.125,992.5 332.6953,993.0078 Q332.0703,993.75 331.0742,994.1602 Q329.7656,994.7266 328.1641,994.7266 Q326.2891,994.7266 324.7852,993.9844 Q323.5742,993.3984 322.7148,992.1289 Q321.875,990.8594 321.875,989.3555 L321.875,987.9883 Q321.875,986.4258 322.6172,985.0586 Q323.3789,983.6914 324.6875,982.9688 Q326.0156,982.2266 327.5,982.2266 Q328.3984,982.2266 329.1797,982.5391 Q329.9609,982.8516 330.625,983.4766 Z "/><text fill="#000000" font-family="sans-serif" font-size="15" lengthAdjust="spacingAndGlyphs" textLength="56.25" x="345.625" y="993.9893">Position</text><line style="stroke: #A80036; stroke-width: 1.875;" x1="310.625" x2="404.375" y1="1007.8516" y2="1007.8516"/><rect fill="none" height="7.5" style="stroke: #C82930; stroke-width: 1.25;" width="7.5" x="319.375" y="1017.8516"/><text fill="#000000" font-family="sans-serif" font-size="13.75" lengthAdjust="spacingAndGlyphs" textLength="32.5" x="334.375" y="1027.1252">x : int</text><rect fill="none" height="7.5" style="stroke: #C82930; stroke-width: 1.25;" width="7.5" x="319.375" y="1035.1465"/><text fill="#000000" font-family="sans-serif" font-size="13.75" lengthAdjust="spacingAndGlyphs" textLength="32.5" x="334.375" y="1044.4202">y : int</text><line style="stroke: #A80036; stroke-width: 1.875;" x1="310.625" x2="404.375" y1="1052.4414" y2="1052.4414"/><ellipse cx="323.125" cy="1066.1914" fill="#84BE84" rx="3.75" ry="3.75" style="stroke: #038048; stroke-width: 1.25;"/><text fill="#000000" font-family="sans-serif" font-size="13.75" lengthAdjust="spacingAndGlyphs" textLength="37.5" x="334.375" y="1071.7151">getX()</text><ellipse cx="323.125" cy="1083.4863" fill="#84BE84" rx="3.75" ry="3.75" style="stroke: #038048; stroke-width: 1.25;"/><text fill="#000000" font-family="sans-serif" font-size="13.75" lengthAdjust="spacingAndGlyphs" textLength="38.75" x="334.375" y="1089.01">getY()</text><ellipse cx="323.125" cy="1100.7813" fill="#84BE84" rx="3.75" ry="3.75" style="stroke: #038048; stroke-width: 1.25;"/><text fill="#000000" font-family="sans-serif" font-size="13.75" lengthAdjust="spacingAndGlyphs" textLength="37.5" x="334.375" y="1106.3049">setX()</text><ellipse cx="323.125" cy="1118.0762" fill="#84BE84" rx="3.75" ry="3.75" style="stroke: #038048; stroke-width: 1.25;"/><text fill="#000000" font-family="sans-serif" font-size="13.75" lengthAdjust="spacingAndGlyphs" textLength="38.75" x="334.375" y="1123.5999">setY()</text><polygon fill="#4177AF" points="323.125,1130.3711,318.125,1137.8711,328.125,1137.8711" style="stroke: #1963A0; stroke-width: 1.25;"/><text fill="#000000" font-family="sans-serif" font-size="13.75" lengthAdjust="spacingAndGlyphs" textLength="56.25" x="334.375" y="1140.8948">Position()</text><!--MD5=[9a8add4d69184b839b9cc600d0bd6091]
class com.player.PawnType--><rect codeLine="149" fill="#FEFECE" filter="url(#fn70f7t1anjvl)" height="60" id="com.player.PawnType" style="stroke: #A80036; stroke-width: 1.875;" width="111.25" x="353.125" y="224.7266"/><ellipse cx="371.875" cy="244.7266" fill="#ADD1B2" rx="13.75" ry="13.75" style="stroke: #A80036; stroke-width: 1.25;"/><path d="M374.375,240.3516 Q374.6289,239.7266 374.9219,239.4141 Q375.2148,239.1016 375.5469,239.1016 Q376.1328,239.1016 376.5039,239.4531 Q376.875,239.8047 376.875,240.625 L376.875,242.5781 Q376.875,243.3984 376.5234,243.75 Q376.1719,244.1016 375.625,244.1016 Q375.1367,244.1016 374.8242,243.8867 Q374.5117,243.6719 374.375,243.1055 Q374.3164,242.7148 374.1016,242.5 Q373.7109,242.0898 373.0078,241.8555 Q372.3047,241.6016 371.6016,241.6016 Q370.7227,241.6016 369.9805,241.9531 Q369.2578,242.3047 368.6914,243.0859 Q368.125,243.8672 368.125,244.9414 L368.125,246.0938 Q368.125,247.3828 369.1797,248.2422 Q370.2344,249.1016 372.1094,249.1016 Q373.2227,249.1016 374.0039,248.8477 Q374.4531,248.7109 374.9609,248.2617 Q375.293,248.0078 375.4688,247.9297 Q375.6445,247.8516 375.8594,247.8516 Q376.2695,247.8516 376.5625,248.1836 Q376.875,248.4961 376.875,248.9453 Q376.875,249.375 376.4453,249.8828 Q375.8203,250.625 374.8242,251.0352 Q373.5156,251.6016 371.9141,251.6016 Q370.0391,251.6016 368.5352,250.8594 Q367.3242,250.2734 366.4648,249.0039 Q365.625,247.7344 365.625,246.2305 L365.625,244.8633 Q365.625,243.3008 366.3672,241.9336 Q367.1289,240.5664 368.4375,239.8438 Q369.7656,239.1016 371.25,239.1016 Q372.1484,239.1016 372.9297,239.4141 Q373.7109,239.7266 374.375,240.3516 Z "/><text fill="#000000" font-family="sans-serif" font-size="15" lengthAdjust="spacingAndGlyphs" textLength="71.25" x="389.375" y="250.8643">PawnType</text><line style="stroke: #A80036; stroke-width: 1.875;" x1="354.375" x2="463.125" y1="264.7266" y2="264.7266"/><line style="stroke: #A80036; stroke-width: 1.875;" x1="354.375" x2="463.125" y1="274.7266" y2="274.7266"/><!--MD5=[cae39a00a221fcf997f4eafca5e0b02f]
class com.player.Player--><rect codeLine="153" fill="#FEFECE" filter="url(#fn70f7t1anjvl)" height="77.2949" id="com.player.Player" style="stroke: #A80036; stroke-width: 1.875;" width="238.75" x="70.625" y="215.9766"/><ellipse cx="163.4375" cy="235.9766" fill="#ADD1B2" rx="13.75" ry="13.75" style="stroke: #A80036; stroke-width: 1.25;"/><path d="M165.9375,231.6016 Q166.1914,230.9766 166.4844,230.6641 Q166.7773,230.3516 167.1094,230.3516 Q167.6953,230.3516 168.0664,230.7031 Q168.4375,231.0547 168.4375,231.875 L168.4375,233.8281 Q168.4375,234.6484 168.0859,235 Q167.7344,235.3516 167.1875,235.3516 Q166.6992,235.3516 166.3867,235.1367 Q166.0742,234.9219 165.9375,234.3555 Q165.8789,233.9648 165.6641,233.75 Q165.2734,233.3398 164.5703,233.1055 Q163.8672,232.8516 163.1641,232.8516 Q162.2852,232.8516 161.543,233.2031 Q160.8203,233.5547 160.2539,234.3359 Q159.6875,235.1172 159.6875,236.1914 L159.6875,237.3438 Q159.6875,238.6328 160.7422,239.4922 Q161.7969,240.3516 163.6719,240.3516 Q164.7852,240.3516 165.5664,240.0977 Q166.0156,239.9609 166.5234,239.5117 Q166.8555,239.2578 167.0313,239.1797 Q167.207,239.1016 167.4219,239.1016 Q167.832,239.1016 168.125,239.4336 Q168.4375,239.7461 168.4375,240.1953 Q168.4375,240.625 168.0078,241.1328 Q167.3828,241.875 166.3867,242.2852 Q165.0781,242.8516 163.4766,242.8516 Q161.6016,242.8516 160.0977,242.1094 Q158.8867,241.5234 158.0273,240.2539 Q157.1875,238.9844 157.1875,237.4805 L157.1875,236.1133 Q157.1875,234.5508 157.9297,233.1836 Q158.6914,231.8164 160,231.0938 Q161.3281,230.3516 162.8125,230.3516 Q163.7109,230.3516 164.4922,230.6641 Q165.2734,230.9766 165.9375,231.6016 Z "/><text fill="#000000" font-family="sans-serif" font-size="15" lengthAdjust="spacingAndGlyphs" textLength="42.5" x="189.0625" y="242.1143">Player</text><line style="stroke: #A80036; stroke-width: 1.875;" x1="71.875" x2="308.125" y1="255.9766" y2="255.9766"/><polygon fill="none" points="84.375,264.7266,79.375,272.2266,89.375,272.2266" style="stroke: #1963A0; stroke-width: 1.25;"/><text fill="#000000" font-family="sans-serif" font-size="13.75" lengthAdjust="spacingAndGlyphs" textLength="206.25" x="95.625" y="275.2502">catalogue : ArrayList&lt;PawnType&gt;</text><line style="stroke: #A80036; stroke-width: 1.875;" x1="71.875" x2="308.125" y1="283.2715" y2="283.2715"/><!--MD5=[12babb2a9f0d1e90b33748d0800471ed]
reverse link com.model.AdjacencyList to com.model.AdjacencyList.Vertex--><path codeLine="64" d="M1082.5,635.7791 C1082.5,667.6641 1082.5,701.1228 1082.5,728.8753 " fill="none" id="com.model.AdjacencyList-backto-com.model.AdjacencyList.Vertex" style="stroke: #A80036; stroke-width: 1.25;"/><polygon fill="#A80036" points="1082.5,619.2878,1077.5,626.7878,1082.5,634.2878,1087.5,626.7878,1082.5,619.2878" style="stroke: #A80036; stroke-width: 1.25;"/><!--MD5=[b57ae8d759068ba8bbe253ad233fc462]
reverse link com.level.Board to com.model.AdjacencyList--><path codeLine="65" d="M911.4763,356.4378 C914.7775,359.4353 918.0413,362.4116 921.25,365.3516 C940.4638,382.9553 960.7563,401.9216 980.2225,420.3078 " fill="none" id="com.level.Board-backto-com.model.AdjacencyList" style="stroke: #A80036; stroke-width: 1.25;"/><polygon fill="#FFFFFF" points="899.3975,345.5178,901.6081,354.2564,910.5248,355.5768,908.3141,346.8382,899.3975,345.5178" style="stroke: #A80036; stroke-width: 1.25;"/><!--MD5=[d880a2a023bd178ed593212cd7cc74ce]
reverse link com.level.Board to com.level.Field--><path codeLine="66" d="M758.0188,360.9253 C744.8413,395.9541 730.6838,433.5891 719.5113,463.2891 " fill="none" id="com.level.Board-backto-com.level.Field" style="stroke: #A80036; stroke-width: 1.25;"/><polygon fill="#A80036" points="763.7925,345.5803,756.4719,350.8395,758.511,359.6198,765.8316,354.3605,763.7925,345.5803" style="stroke: #A80036; stroke-width: 1.25;"/><!--MD5=[0fe2f8af51d5053cd4a212a82e87530d]
reverse link com.level.Field to com.pawns.Pawn--><path codeLine="144" d="M618.6788,543.3203 C563.9325,561.8303 492.5063,592.7028 442.5,639.1016 C425.7838,654.6116 411.5662,674.1778 399.8188,694.0903 " fill="none" id="com.level.Field-backto-com.pawns.Pawn" style="stroke: #A80036; stroke-width: 1.25;"/><polygon fill="#FFFFFF" points="634.3663,538.1978,625.6847,535.773,620.1073,542.8541,628.7889,545.279,634.3663,538.1978" style="stroke: #A80036; stroke-width: 1.25;"/><!--MD5=[63ae489e49c289a9c6ce766669496046]
reverse link com.pawns.Pawn to com.pawns.Position--><path codeLine="145" d="M357.5,910.0366 C357.5,929.3616 357.5,949.1528 357.5,967.7028 " fill="none" id="com.pawns.Pawn-backto-com.pawns.Position" style="stroke: #A80036; stroke-width: 1.25;"/><polygon fill="#A80036" points="357.5,893.2191,352.5,900.7191,357.5,908.2191,362.5,900.7191,357.5,893.2191" style="stroke: #A80036; stroke-width: 1.25;"/><!--MD5=[27020452652f355b82ea0e99880a0909]
link com.pawns.Attack to com.pawns.AttackType--><!--MD5=[776e4a2ece5638606c8abbccb1e11bbc]
link com.pawns.AttackType to com.pawns.Bite--><!--MD5=[9fbee8ae2b15a255cad78273a6158dcf]
link com.pawns.Attack to com.pawns.Body--><!--MD5=[56e50aafa1b8f6534b821d62b9774922]
link com.pawns.Body to com.pawns.Bug--><!--MD5=[bf3548c96e396c39ae2bd39ab6682612]
link com.pawns.Bug to com.pawns.PawnSegment--><!--MD5=[220a27596f64d280e80a81239f3cf4a7]
@startuml

title __COM's Class Diagram__\n

namespace com {

  namespace com.level {
    class com.level.Board {
        - board : Field[][]
        - graph : AdjacencyList<Field>
        - sizeX : int
        - sizeY : int
        + Board()
        - initBoard()
        - initGraph()
    }
  }


  namespace com.level {
    class com.level.Field {
        - status : boolean
        + getStatus()
        + setStatus()
    }
  }


  namespace com.level {
    class com.level.Level {
        - board : Board
        + Level()
        - initBoard()
    }
  }





  namespace com.model {
    class com.model.AdjacencyList {
        ~ vertices : HashSet<Vertex<T>>
        + addEdge()
        + addVertex()
        + getAllVertices()
        + getNeighbours()
        + removeEdge()
        + removeVertex()
        - getVertex()
    }
  }


  namespace com.model {
    class com.model.AdjacencyList.Vertex {
        - self : S
        - neighbours : ArrayList<S>
        + Vertex()
        + same()
    }
  }


  com.model.AdjacencyList *-down- com.model.AdjacencyList.Vertex
  com.level.Board o-down- com.model.AdjacencyList
  com.level.Field -down-* com.level.Board


  namespace com.pawns {
    abstract class com.pawns.Attack {
        - magnitude : byte
        - range : byte
        - type : AttackType
    }
  }


  namespace com.pawns {
    enum AttackType {
      HEALTH
      SIZE
      SPEED
    }
  }


  namespace com.pawns {
    class com.pawns.Bite {
        ~ doAttack()
    }
  }


  namespace com.pawns {
    class com.pawns.Body {
        - head : Pawn
        - position : Position
        + Body()
    }
  }


  namespace com.pawns {
    class com.pawns.Bug {
        ~ attack()
        ~ move()
    }
  }


  namespace com.pawns {
    abstract class com.pawns.Pawn {
        - attack1 : Attack
        - attack2 : Attack
        - maxHealth : int
        - mvRange : int
        - speed : int
        + Pawn()
        {abstract} ~ attack()
        {abstract} ~ move()
    }
  }


  namespace com.pawns {
    class com.pawns.PawnSegment {
    }
  }


  namespace com.pawns {
    class com.pawns.Position {
        - x : int
        - y : int
        + getX()
        + getY()
        + setX()
        + setY()
        ~ Position()
    }
  }


  com.pawns.Pawn -down-o com.level.Field
  com.pawns.Pawn *-down- com.pawns.Position


  namespace com.player {
    class com.player.PawnType {
    }
  }
  namespace com.player {
    class com.player.Player {
        ~ catalogue : ArrayList<PawnType>
    }
  }


}
@enduml

PlantUML version 1.2020.19(Mon Oct 12 17:10:01 CEST 2020)
(GPL source distribution)
Java Runtime: OpenJDK Runtime Environment
JVM: OpenJDK 64-Bit Server VM
Default Encoding: Cp1252
Language: de
Country: DE
--></g></svg>